<svg xmlns="http://www.w3.org/2000/svg" width="1175.99" height="659.25" viewBox="0 0 1175.99 659.25">
  <g id="图层_2" data-name="图层 2">
    <g id="图层_1-2" data-name="图层 1">
      <g>
        <path d="M1.2,265.4c.5,26.5,1.2,53,1.8,79.3v.2c21.5-3.7,43.5-3.3,65.3-1,27.8,2.8,55.2,8.5,82.8,12.3,31.5,4.5,63.8,5.7,95.7,4.7a619.39,619.39,0,0,0,116.7-14.2c0-1.8-.2-3.5-.2-5.3v-1.3c-.7-23.3-1.3-46.8-1.7-70.2-.2-4.2-.2-8.5-.2-12.7v-1.3c-.2-10-.3-20.2-.3-30.2-.3-27.7-.5-55.3-.5-83,0-2.2,0-4.5-.2-6.7H.4c-.2,2.2-.2,4.5-.2,6.7V152Q-.1,208.85,1.2,265.4Z" style="fill: #00aad3"/>
        <path d="M0,162.2c22.2-.2,44.3-.3,66.7-.5,98-.8,196-1.2,293.8,0V142.9c0-2.2,0-4.5-.2-6.7H.3c-.2,2.2-.2,4.5-.2,6.7v9.3C0,155.6,0,158.9,0,162.2Z" style="fill: #ff495d"/>
        <path d="M171,.1H677.3a17.23,17.23,0,0,1,17.2,16.7V17q0,105.3.6,210.5c.1,12.7.2,25.5.3,38.3s.2,25.6.3,38.3v3.5c.1,5.4.1,10.7.2,16.1s.1,10.7.2,16.1q1,89.25,2.5,178.1v3.5c.1,4.4.2,8.8.2,13.2s.2,8.8.2,13.2V551l.3,17.7.3,17.7H176c-.5-19-.8-38-1.2-57Q173,428.6,172,327.9q-1.2-143.7-1.5-287.5V17.1C170.7,11.4,170.8,5.8,171,.1ZM690.9,16.9A13.62,13.62,0,0,0,677.2,3.4v.2H174.3c-.2,4.8-.2,9.3-.2,13.7V40.8c0,98.3.5,195,1.5,287.5.7,68.3,1.7,136.2,2.8,201.5.2,16.5.5,33.5,1,53.8H696l-.5-32v-3.3c-.1-8.6-.3-17.2-.5-25.8v-4.4c-1-59.2-1.8-119-2.5-178.1-.1-5.6-.1-11.2-.2-16.8,0-5.1-.1-10.2-.2-15.2v-3.6c-.3-21.4-.5-46.2-.6-71.5v-5.2c-.3-67.5-.7-138.5-.7-210.6v-.2Z" style="fill: #00aad3;fill-rule: evenodd"/>
        <path d="M694.3,64.9c-116.8-2.7-233.8-2.3-350.8-1-2.8,0-5.7,0-8.5.2-22.5.3-45,.5-67.5.8-9.2.2-18.3.3-27.5.3h-5.7c-21.2.3-42.3.7-63.5,1V17c0-5.7.2-11.3.3-17H677.4a16.94,16.94,0,0,1,17,16.8v.3C694.3,33.1,694.3,49.1,694.3,64.9Z" style="fill: #ff495d"/>
        <path d="M239.1.1c-9,5-18,10-27.2,14.7-13.5,7-27.2,13.3-41.3,19V30.3a524.71,524.71,0,0,0,52.5-25c3-1.7,6-3.3,9-5h7Z" style="fill: #0258a3"/>
        <path d="M302.5.1a30.47,30.47,0,0,1-3.3,13c-8.5,15.7-26.3,27-40.2,37.7-2.2,1.7-10.2,7.3-19,14.7h-5.7c13.2-11.2,27.7-21,41-31.8,8-6.5,16.8-13.7,21.5-23A23.82,23.82,0,0,0,299.1.2h3.4Z" style="fill: #0258a3"/>
        <path d="M434.8.1A256.29,256.29,0,0,1,400,30.9c-17.7,13.2-36.7,23.8-56.5,33-2.8,0-5.7,0-8.5.2,25.2-11.2,49.2-24.5,71-42A252.67,252.67,0,0,0,430.2.1Z" style="fill: #0258a3"/>
        <path d="M272.8,229.1c-77.2-1.7-154.5-5-231.6-1.2-2.2.2-2.2,3.5,0,3.3,77.2-3.8,154.5-.5,231.6,1.2C274.8,232.4,275,229.1,272.8,229.1Z" style="fill: #fff"/>
        <path d="M162.3,281.7c-40.3,7.2-82-7.8-121.7,5-2,.7-1.2,3.8.8,3.2,39.5-12.8,81.3,2.2,121.7-5C165.3,284.7,164.5,281.4,162.3,281.7Z" style="fill: #fff"/>
        <path d="M241.1,280.1H202.8a1.65,1.65,0,1,0,0,3.3h38.3A1.65,1.65,0,1,0,241.1,280.1Z" style="fill: #fff"/>
        <path d="M1073.7,120.6c-26.7,2-25.5,41.2-14.5,61.2s-11.8,46.7-12.2,67.8c-.5,25,18.2,27.8,36.7,27.8,27.8,0,36.2-10,36.7-42.2C1121.6,169.2,1133.7,116.3,1073.7,120.6Z" style="fill: #ff495d"/>
        <path d="M1066.1,223.4c5,5,11.5,6.8,17.8,6.8a35.23,35.23,0,0,0,13.7-2.7c11.5-4.7,18-14.3,16.8-25.2-1.2-11.7-8.3-22.3-17.8-26.5a27.35,27.35,0,0,0-21.2-.3c-5.8,2.3-13.2,6.2-16.5,15.3C1055.1,201.6,1058.1,215.6,1066.1,223.4Zm10.6-44.8a23.22,23.22,0,0,1,9-1.7,27.63,27.63,0,0,1,9.5,1.8c8.2,3.7,14.8,13.5,15.8,23.8,1,9.3-4.7,17.7-14.7,21.7-8.3,3.5-20.2,4.3-28-3.3-7.2-7-9.8-19.5-6.3-29C1064.9,184.2,1071.1,180.7,1076.7,178.6Z" style="fill: #fff;fill-rule: evenodd"/>
        <path d="M1086.6,171.7a1.65,1.65,0,0,0-3.3,0c-.2,11.5,2.3,22.8,2.2,34.5a1.65,1.65,0,0,0,3.3,0C1088.9,194.6,1086.4,183.2,1086.6,171.7Z" style="fill: #fff"/>
        <path d="M1156.5,97.3c-8.5,11-14.5,23.8-25,33.3-1.7,1.5.8,3.8,2.3,2.3,10.5-9.5,16.5-22.3,25-33.3C1160.2,97.9,1157.7,95.6,1156.5,97.3Z" style="fill: #ffe34f"/>
        <path d="M1171,193.4c-10,.7-20,1.5-30,1.7a1.65,1.65,0,0,0,0,3.3c10-.2,20-1,30-1.7C1173,196.6,1173.2,193.2,1171,193.4Z" style="fill: #ffe34f"/>
        <path d="M1175.2,243.6c-13.5-5.8-24.3-16.2-38.7-20.2-2-.5-3,2.7-.8,3.2,14,3.8,24.8,14,38,19.8C1175.4,247.4,1177,244.6,1175.2,243.6Z" style="fill: #ffe34f"/>
        <path d="M452.8,228.4c26,81.8,43.3,145,43.3,145l84-17L524.6,207.6Z" style="fill: #ffc4bc"/>
        <path d="M491.3,310.2c9-16.8,8.7-37.8,8.8-56.3.2-13-.7-26.5,1-39.7l-48.3,14c11.3,36,21.2,68.3,28.5,93.3A30.8,30.8,0,0,0,491.3,310.2Z" style="fill: #ff9682"/>
        <path d="M494.4,128.4a65,65,0,0,0-50.3-.7c-13.8,5.5-31.5,14.3-39.7,36.5-9.3,25.2-2.5,58.8,17,78.2,20.2,19.7,51,19.5,75.8,9.5,25-10,42.8-31.8,40-59.3C534.8,166.6,518.6,139.2,494.4,128.4Z" style="fill: #ffc4bc"/>
        <path d="M496.3,186.6a6.07,6.07,0,0,0-3.2,5.7,2.3,2.3,0,0,0-.8,1.7c-.2,4.5-.2,14.2,6.3,14.2,5.8,0,6.2-8.7,5.8-12.7C504.1,191.7,501.4,183.7,496.3,186.6Z" style="fill: #ff9682"/>
        <path d="M449.8,147.4c11.5-2.8,24-5.2,34.2,2.5,5.5,4.2,9.5,9.7,14.2,14.7a78.68,78.68,0,0,0,18.3,14.3,57.47,57.47,0,0,0,20,7.2c-4.5-23.8-19.8-47.7-42-57.5a65,65,0,0,0-50.3-.7c-12,4.8-27.2,12.3-36.2,29C421.8,153.6,435.8,150.8,449.8,147.4Z" style="fill: #0258a3"/>
        <path d="M410,188.1c2.2,2.7,4.7,5,6.5,7.8a2.48,2.48,0,1,0,3.8-3.2c-1.8-2.8-4.3-5.2-6.5-7.8C411.8,182.4,408,185.6,410,188.1Z" style="fill: #000100"/>
        <path d="M454.3,177.7c2.2,2.7,4.7,5,6.5,7.8a2.48,2.48,0,1,0,3.8-3.2c-1.8-2.8-4.3-5.2-6.5-7.8C456.3,172.1,452.3,175.2,454.3,177.7Z" style="fill: #000100"/>
        <path d="M543.8,177.6c-6-12-17.8-17.2-41.7-5.3l23.7,40.3C544.4,208.9,548.9,188.1,543.8,177.6Z" style="fill: #ffc4bc"/>
        <path d="M522.4,185.4c-2.3,2-3.8,4.7-5.7,7.2-1.3,1.7,1.5,3.5,2.8,1.8,1.7-2.2,3-4.7,5.2-6.5A1.7,1.7,0,0,0,522.4,185.4Z" style="fill: #000100"/>
        <path d="M433.6,196.4c-2.3,6.3-4.2,12.5-8.5,17.8-1.3,1.7,1.5,3.5,2.8,1.8,4.5-5.5,6.5-12,8.8-18.7C437.4,195.4,434.3,194.4,433.6,196.4Z" style="fill: #000100"/>
        <path d="M512.1,126.3c-26.2-29.2,27.8-52.2,53.3-35.5C591.1,107.3,541.1,158.4,512.1,126.3Z" style="fill: #0258a3"/>
        <path d="M578.8,129.4c-9.7-5.2-24.8,11.3-11.2,18.3S590.9,136.1,578.8,129.4Z" style="fill: #0258a3"/>
        <path d="M699.8,586.7H307c-6-46.3-13-106.3-17.7-168.3C280.1,297.1,302,305.9,465.8,306.7c14,0,29.2,0,45.3-.2,19.7.2,38,.2,55,0,58-.5,100-2.7,129.5-2.2,0,1.2.2,24.8.4,35.5.7,59.3,1.5,118.8,2.5,178.1v3.5c.2,8.8.3,17.7.5,26.5v3.2C699.3,563,699.4,574.9,699.8,586.7Z" style="fill: #fd7960"/>
        <path d="M425.1,319.2c13.5,10,27.3,14.8,43.8,9,9.7-3.5,17.2-8.7,22.2-17.8a28.08,28.08,0,0,0,1.7-3.5h-27c-24.3-.2-45.5-.3-63.8-.3A96.2,96.2,0,0,1,425.1,319.2Z" style="fill: #ff495d"/>
        <path d="M698.9,548c-.2-8.8-.3-17.7-.5-26.5v-4c-13.7-33.5-16.2-75-44.7-98.8-6.3,7.7-6.8,17.5-8.7,27.2-2.2,11.7-5.5,23.3-8.5,34.8-5.7,22.2-12.5,44-19.3,66A355.33,355.33,0,0,0,606.9,587h92.5c-.2-11.8-.5-23.7-.7-35.5A22.38,22.38,0,0,0,698.9,548Z" style="fill: #ff495d"/>
        <path d="M359.3,451.7c-5.3-21.7-11-43.2-14.7-65-2,7.2-4.5,14.2-6.2,21.5-3.3,14.3-.8,29.3-2.2,44a162.93,162.93,0,0,1-8.2,38.7c-4,11.8-8.5,23.7-8.8,36.2a2,2,0,0,1,.8,1.7c.2,19.5,3,38.8,6.7,58.2h61.2c-4.8-17.8-8.7-36-12.3-54.2C370.1,505.7,365.8,478.5,359.3,451.7Z" style="fill: #ff495d"/>
        <path d="M430.6,647.5c27.3-29.2,54.7-58.3,81.8-87.5a43.87,43.87,0,0,0-13.3,1.5c-4,1.2-9.8,3.5-14.8,4.2a7.13,7.13,0,0,0-2.8-.2,38.08,38.08,0,0,0-4.7.7c-3.7.5-7.3.8-11,1a355.56,355.56,0,0,1-41.3.2c-28-1.3-56-4.7-84-6.5-53.8-3.3-108-8.8-161.8-5.7-2.2.2-4.5.3-6.7.5l-84.2,90a48,48,0,0,0,18.8-.7c5.8-1.3,11.5-2.5,17.3-3.7.7-.2,1.3-.3,2.2-.5a1.23,1.23,0,0,0,.7-.2l10.5-1.5c13.2-1.8,26.3-3.2,39.5-4a609.4,609.4,0,0,1,78.8,0c27.5,1.7,55.2,3.5,82.7,5.2,28.2,1.7,56,5,84.1,6.5A44.65,44.65,0,0,0,430.6,647.5Z" style="fill: #000100"/>
        <path d="M331,486.7c-84.8,1.8-83.3,9.3-108,47.8-11.7,18.2-11.3,30-12,39.7-.8,10.8-1.5,18.3,6.7,20.8,7.5,2.2,10.8-5,15.7-11.8-3.3,9-1.2,19,9.3,21.8,15.3,4.2,20.2-19.2,25-29.2-3.8,9.7-5.5,29.8,9.2,33.3,17.7,4.3,18.3-18.3,17.5-43.3-.5-1.2,20-7.5,21.2-8a15.78,15.78,0,0,1,4.3-1.8c10.8-9.7,26.8-12.2,39.3-5,11.3-13.8,22.8-26.2,26.7-33.5C392.3,506,403.6,485.2,331,486.7Z" style="fill: #ffc4bc"/>
        <path d="M386.1,495a35.16,35.16,0,0,0-13,19,15.08,15.08,0,0,0-8.2,5.2h-.4c-.3,0-1.2-.2-1.5-.2a46.71,46.71,0,0,0-5.2-.8c-8.2-1.3-17.5,2.2-19.5,11-1.7,7.7,2.3,18,11,19.5,6.2,1,12.3,2.5,18.7,2a29.07,29.07,0,0,0,12.7-3.8c11.5,26.2,24.5,44,36.2,37.3C436.1,573.2,404.5,505,386.1,495Z" style="fill: #ffc4bc"/>
        <path d="M331,518.5c-28.5,9.5-36,33-39,66.5-2,22,23.2,28.8,28.3,7.3,3-12.3-1.2-40,33.2-46.3C375.5,542,352.1,511.5,331,518.5Z" style="fill: #ffc4bc"/>
        <path d="M320.3,515.2c-12.2,8-24.3,17-27.2,32.2-3,16,.3,32.3.5,48.5a1.65,1.65,0,0,0,3.3,0c-.2-13.7-2.5-27.3-1.5-41,1.3-17.7,12.3-27.5,26.5-36.7C323.6,517,322,514,320.3,515.2Z" style="fill: #000100"/>
        <path d="M278.3,525A153.65,153.65,0,0,0,265,576.5c-.2,2.2,3.2,2.7,3.3.5a150.21,150.21,0,0,1,13.2-50.7C282.3,524.5,279.1,523.2,278.3,525Z" style="fill: #000100"/>
        <path d="M251.6,525.2c-6.5,18.2-15.8,35.2-18.3,54.7-.3,2.2,3,2.2,3.3,0,2.5-19,11.8-35.8,18.3-53.7C255.6,524,252.5,523.2,251.6,525.2Z" style="fill: #000100"/>
        <path d="M379.8,543.9c-7-6.5-15.5-10-24.8-11.3-2.2-.3-3,3-.8,3.2,8.8,1.2,16.8,4.3,23.5,10.3C379,547.7,381.3,545.4,379.8,543.9Z" style="fill: #000100"/>
        <path d="M412,554.2c-11.2-.2-14,16.2-9.8,24.2,1,1.8,3.8.2,2.8-1.7-3-5.7-1.5-19.3,6.8-19.2C414.1,557.5,414.1,554.2,412,554.2Z" style="fill: #000100"/>
        <path d="M297,572.5c-2.2.2-2.2,3.5,0,3.3,5.3-.3,10.8.8,13.7,5.8,2.7,4.7,2.2,10.5.5,15.5-.7,2,2.7,3,3.2.8C318.5,584.7,312.1,571.5,297,572.5Z" style="fill: #000100"/>
        <path d="M284.6,580.9c-3.8-3.8-8.8-2.7-12.8.2-1.7,1.3,0,4.2,1.7,2.8,3.7-2.7,7.3-3.3,10,.8,2,3.2,2.8,7,3.3,10.7.3,2.2,3.5,1.2,3.2-.8C289.5,589.9,288.1,584.4,284.6,580.9Z" style="fill: #000100"/>
        <path d="M253,577.7c-3.8-6.7-10.7-6.8-16.8-3.3-1.8,1-.2,4,1.7,2.8,13.7-7.8,16.5,11.3,11.8,20.2-1,1.8,1.8,3.7,2.8,1.7C255.8,592.9,256.6,584.2,253,577.7Z" style="fill: #000100"/>
        <path d="M227.3,569.9c-3.2-4.3-8.5-4.5-13.3-3-2,.7-1.2,3.8.8,3.2,3.7-1.2,8-1.3,10.2,2.5,2,3.3,1.3,7.8.3,11.3-.7,2,2.7,3,3.2.8C230,579.9,230.3,574,227.3,569.9Z" style="fill: #000100"/>
        <path d="M346.6,495.9c-1.2-2.3-4-2.7-6.2-2.3a2.59,2.59,0,0,0-1.7,1.2c-.2.7-.3,1.3-.5,2a1.05,1.05,0,0,0-1,.8c-1.7,3.5-4.2,6.5-6.2,9.8a1.8,1.8,0,0,0,1,2.5c5.7,1,11.2-3,13.8-7.8C346.8,500.2,347.6,497.9,346.6,495.9Z" style="fill: #ff9682"/>
        <path d="M306.1,494.9a1.77,1.77,0,0,0-2.5,1c-.3.2-.7.3-.8.7-1,2.2-1.3,4.5-2.5,6.7a1.7,1.7,0,0,0,1,2.5C307.8,507,312.1,498.4,306.1,494.9Z" style="fill: #ff9682"/>
        <path d="M416.6,614.5c-17.5,1.2-34.7-3-52.2-3.3a1.65,1.65,0,0,0,0,3.3c17.5.3,34.7,4.5,52.2,3.3C418.8,617.7,418.8,614.4,416.6,614.5Z" style="fill: #00aad3"/>
        <path d="M334.5,611.2H322.3a1.65,1.65,0,1,0,0,3.3h12.2A1.65,1.65,0,0,0,334.5,611.2Z" style="fill: #00aad3"/>
        <path d="M421.8,587.9c-11.5,3.3-23.7-.2-35.2-2a218.18,218.18,0,0,0-34.3-2.5,1.65,1.65,0,0,0,0,3.3,229.38,229.38,0,0,1,40.5,3.7c9.8,1.7,20.2,3.5,30,.8C424.6,590.5,423.8,587.4,421.8,587.9Z" style="fill: #00aad3"/>
        <path d="M463.3,583.4a70.86,70.86,0,0,0-17.2,1.2c-2.2.5-1.2,3.7.8,3.2a62.83,62.83,0,0,1,16.2-1A1.7,1.7,0,0,0,463.3,583.4Z" style="fill: #00aad3"/>
        <path d="M199.2,580.2c-7.2,3.8-15.8,2.2-23.7,2a1.65,1.65,0,1,0,0,3.3c8.5.2,17.5,1.8,25.3-2.5C202.7,582.2,201,579.2,199.2,580.2Z" style="fill: #00aad3"/>
        <path d="M205.5,604.5c-17.5,1.8-35-2.3-52.7,0-2.2.3-1.7,3.5.5,3.3,17.5-2.3,35,2,52.7,0C208.2,607.5,207.7,604.4,205.5,604.5Z" style="fill: #00aad3"/>
        <path d="M989.9,213.4c26.8,1,35.5,35.5,5.5,48.8s-42.2,27.8-60,5.5C917.7,245.6,957.7,212.2,989.9,213.4Z" style="fill: #ff9682"/>
        <path d="M986.6,189.6c-77.8,2.2-110,1.2-125.5,48.8-8,24.5-32,90.3-57.8,167-45.5-83.2-37.8-100.8-142.1-100l-17.8,82.5s73.3,195,131.2,250.5c50,48.2,116.2,5.8,130.5-55.5,20.5-87.8,31.7-246.3,62.8-278.6,12.8-13.3,10-29.5,6.2-44a42.46,42.46,0,0,1-5.3-.7c-6.7-1-17.7-2.3-21.3-9.2-7-13.3,15.5-23.5,30.8-26,3.8-1.5,9.2-2.5,16.3-2.7,56.7-1.2,67.8-5.5,72.2-16.7S1064.4,187.2,986.6,189.6Z" style="fill: #ffc4bc"/>
        <path d="M799.2,397.9c-41-76.7-37-93.3-138-92.5l-17.8,82.5S683.1,493.6,727,571.4C749.8,513,774.4,455.4,799.2,397.9Z" style="fill: #fd7960"/>
        <path d="M933.6,272.6c75.8-25,92.7-22.7,97.5-8.3,5,15-44.2,30-103.8,55.3C897.9,331.9,933.6,272.6,933.6,272.6Z" style="fill: #ffc4bc"/>
        <path d="M1012.7,256.9c-9.8,4.5-22.5,16.7-12,26.8a1.63,1.63,0,0,0,2.3-2.3c-8.7-8.5,3.8-18.2,11.3-21.5C1016.2,258.9,1014.5,256.1,1012.7,256.9Z" style="fill: #000100"/>
        <path d="M1059.4,201.7c-6.5,0-16.7.7-16.7-8.3a1.65,1.65,0,0,0-3.3,0c0,11.3,11.3,11.7,20,11.7A1.7,1.7,0,0,0,1059.4,201.7Z" style="fill: #000100"/>
        <path d="M980.1,231.2c-.5-2.2-3.7-1.2-3.2.8,1,4,5.2,7,4.8,11.2-.3,3.8-2.7,7-3.2,10.8-.2,2.2,3.2,2.2,3.3,0,.5-4.3,3.7-8,3.2-12.5C984.7,237.7,981.1,235.2,980.1,231.2Z" style="fill: #fff"/>
        <path d="M947.9,194.1a12.24,12.24,0,0,0-4.7.2h-.5a19,19,0,0,0-10.7,4.5,1.34,1.34,0,0,0-.2,2,1.88,1.88,0,0,0,3,1.3c.2-.2.3-.3.5-.3,5.2.2,9.8-.3,13.3-4.8C949.2,196.1,949.2,194.2,947.9,194.1Z" style="fill: #fff"/>
        <path d="M801.6,414.1v.2a3.68,3.68,0,0,0-1.7,2.2c-.5,1.5-.8,3-1.3,4.7-11.3,26.7-21.3,54.3-31.7,81.8-1.3,3.7,1.3,6,3.2,2.5a450,450,0,0,0,32-82.7c.8-2.2,1.8-4.2,2.7-6.3C806.4,412.9,803.2,410.4,801.6,414.1Z" style="fill: #ff9682"/>
        <path d="M799.8,639.9a1.75,1.75,0,0,0,1.7-1.7,22.89,22.89,0,0,0-5.3-12.7,1.35,1.35,0,0,0-2.2,0c-5.9-9.2-8.3-20.8-20.5-23.5a1.64,1.64,0,0,0-2,1.2C764.1,622,780.2,641,799.8,639.9Z" style="fill: #ff9682"/>
      </g>
    </g>
  </g>
</svg>
