<svg width="252" height="48" viewBox="0 0 252 48" fill="none" xmlns="http://www.w3.org/2000/svg">
    <path d="M46.593 9.42515H28.0253V47.4679H19.6001V9.42515H1V1H46.593V9.42515Z" fill="black" />
    <path d="M96.7874 47.4679H88.3623V36.0616H58.7447V47.4679H50.3195V24.234C50.3195 20.8423 50.9028 17.7207 52.0693 14.8691C53.2359 12.0175 54.8561 9.56557 56.93 7.51329C59.0039 5.46101 61.4558 3.86239 64.2858 2.71743C67.1158 1.57248 70.205 1 73.5535 1H92.5425C93.1257 1 93.6766 1.10801 94.1951 1.32404C94.7135 1.54007 95.1672 1.84251 95.5561 2.23137C95.9449 2.62022 96.2474 3.07388 96.4634 3.59235C96.6794 4.11082 96.7874 4.6617 96.7874 5.24498V47.4679ZM58.7447 27.6364H88.3623V9.42515H73.5535C73.2942 9.42515 72.7434 9.46835 71.9008 9.55476C71.0799 9.61957 70.1186 9.8032 69.0169 10.1056C67.9367 10.4081 66.7917 10.8725 65.582 11.499C64.3722 12.1255 63.2597 12.9896 62.2443 14.0914C61.229 15.1931 60.3865 16.5757 59.7168 18.2391C59.0687 19.881 58.7447 21.8792 58.7447 24.234V27.6364Z" fill="black" />
    <path d="M152.977 37.2605C152.977 38.2975 152.793 39.41 152.426 40.5982C152.08 41.7863 151.497 42.8881 150.676 43.9034C149.877 44.9188 148.829 45.7721 147.533 46.4634C146.237 47.1331 144.649 47.4679 142.769 47.4679H110.786C110.181 47.4679 109.62 47.3599 109.101 47.1439C108.583 46.9278 108.129 46.6362 107.74 46.269C107.373 45.8801 107.081 45.4264 106.865 44.908C106.649 44.3895 106.541 43.8278 106.541 43.2229V5.24498C106.541 4.6617 106.649 4.11082 106.865 3.59235C107.081 3.07388 107.373 2.62022 107.74 2.23137C108.129 1.84251 108.583 1.54007 109.101 1.32404C109.62 1.10801 110.181 1 110.786 1H138.978C140.015 1 141.127 1.18362 142.316 1.55087C143.504 1.91812 144.606 2.51221 145.621 3.33312C146.658 4.13243 147.511 5.18017 148.181 6.47634C148.872 7.77252 149.218 9.36034 149.218 11.2398V12.8276C149.218 14.3182 148.969 15.9276 148.472 17.6559C147.976 19.3625 147.176 20.9827 146.075 22.5165C147.025 23.0998 147.911 23.8019 148.732 24.6228C149.574 25.4437 150.309 26.3943 150.935 27.4744C151.562 28.5545 152.059 29.7751 152.426 31.1361C152.793 32.4971 152.977 33.9985 152.977 35.6403V37.2605ZM144.552 35.6403C144.552 34.5386 144.379 33.5556 144.033 32.6915C143.687 31.8058 143.201 31.0497 142.575 30.4232C141.948 29.7967 141.192 29.3215 140.307 28.9974C139.421 28.6518 138.427 28.4789 137.325 28.4789H118.336V19.989H133.534C134.636 19.989 135.63 19.827 136.515 19.5029C137.401 19.1573 138.157 18.6712 138.784 18.0447C139.41 17.4182 139.885 16.6729 140.209 15.8088C140.555 14.9231 140.728 13.9294 140.728 12.8276V11.2398C140.728 10.03 140.145 9.42515 138.978 9.42515H114.966V39.0428H142.769C142.921 39.0428 143.104 39.032 143.32 39.0104C143.536 38.9888 143.731 38.924 143.903 38.8159C144.076 38.7079 144.227 38.5243 144.357 38.2651C144.487 38.0058 144.552 37.6494 144.552 37.1957V35.6403Z" fill="black" />
    <path d="M203.009 47.4679H164.577C163.973 47.4679 163.411 47.3599 162.892 47.1439C162.374 46.9278 161.92 46.6362 161.531 46.269C161.164 45.8801 160.873 45.4264 160.657 44.908C160.44 44.3895 160.332 43.8278 160.332 43.2229V1H168.758V39.0428H203.009V47.4679Z" fill="black" />
    <path d="M247.209 28.4789H220.605V19.989H247.209V28.4789ZM251 47.4679H220.605C219.438 47.4679 218.164 47.2627 216.781 46.8522C215.398 46.4418 214.113 45.7721 212.925 44.8432C211.758 43.8926 210.775 42.6721 209.976 41.1815C209.198 39.6693 208.809 37.8222 208.809 35.6403V5.24498C208.809 4.6617 208.917 4.11082 209.134 3.59235C209.35 3.07388 209.641 2.62022 210.008 2.23137C210.397 1.84251 210.851 1.54007 211.369 1.32404C211.888 1.10801 212.45 1 213.054 1H251V9.42515H217.235V35.6403C217.235 36.7421 217.526 37.5846 218.11 38.1679C218.693 38.7511 219.546 39.0428 220.669 39.0428H251V47.4679Z" fill="black" />
    <path d="M46.593 9.42515H28.0253V47.4679H19.6001V9.42515H1V1H46.593V9.42515Z" stroke="black" />
    <path d="M96.7874 47.4679H88.3623V36.0616H58.7447V47.4679H50.3195V24.234C50.3195 20.8423 50.9028 17.7207 52.0693 14.8691C53.2359 12.0175 54.8561 9.56557 56.93 7.51329C59.0039 5.46101 61.4558 3.86239 64.2858 2.71743C67.1158 1.57248 70.205 1 73.5535 1H92.5425C93.1257 1 93.6766 1.10801 94.1951 1.32404C94.7135 1.54007 95.1672 1.84251 95.5561 2.23137C95.9449 2.62022 96.2474 3.07388 96.4634 3.59235C96.6794 4.11082 96.7874 4.6617 96.7874 5.24498V47.4679ZM58.7447 27.6364H88.3623V9.42515H73.5535C73.2942 9.42515 72.7434 9.46835 71.9008 9.55476C71.0799 9.61957 70.1186 9.8032 69.0169 10.1056C67.9367 10.4081 66.7917 10.8725 65.582 11.499C64.3722 12.1255 63.2597 12.9896 62.2443 14.0914C61.229 15.1931 60.3865 16.5757 59.7168 18.2391C59.0687 19.881 58.7447 21.8792 58.7447 24.234V27.6364Z" stroke="black" />
    <path d="M152.977 37.2605C152.977 38.2975 152.793 39.41 152.426 40.5982C152.08 41.7863 151.497 42.8881 150.676 43.9034C149.877 44.9188 148.829 45.7721 147.533 46.4634C146.237 47.1331 144.649 47.4679 142.769 47.4679H110.786C110.181 47.4679 109.62 47.3599 109.101 47.1439C108.583 46.9278 108.129 46.6362 107.74 46.269C107.373 45.8801 107.081 45.4264 106.865 44.908C106.649 44.3895 106.541 43.8278 106.541 43.2229V5.24498C106.541 4.6617 106.649 4.11082 106.865 3.59235C107.081 3.07388 107.373 2.62022 107.74 2.23137C108.129 1.84251 108.583 1.54007 109.101 1.32404C109.62 1.10801 110.181 1 110.786 1H138.978C140.015 1 141.127 1.18362 142.316 1.55087C143.504 1.91812 144.606 2.51221 145.621 3.33312C146.658 4.13243 147.511 5.18017 148.181 6.47634C148.872 7.77252 149.218 9.36034 149.218 11.2398V12.8276C149.218 14.3182 148.969 15.9276 148.472 17.6559C147.976 19.3625 147.176 20.9827 146.075 22.5165C147.025 23.0998 147.911 23.8019 148.732 24.6228C149.574 25.4437 150.309 26.3943 150.935 27.4744C151.562 28.5545 152.059 29.7751 152.426 31.1361C152.793 32.4971 152.977 33.9985 152.977 35.6403V37.2605ZM144.552 35.6403C144.552 34.5386 144.379 33.5556 144.033 32.6915C143.687 31.8058 143.201 31.0497 142.575 30.4232C141.948 29.7967 141.192 29.3215 140.307 28.9974C139.421 28.6518 138.427 28.4789 137.325 28.4789H118.336V19.989H133.534C134.636 19.989 135.63 19.827 136.515 19.5029C137.401 19.1573 138.157 18.6712 138.784 18.0447C139.41 17.4182 139.885 16.6729 140.209 15.8088C140.555 14.9231 140.728 13.9294 140.728 12.8276V11.2398C140.728 10.03 140.145 9.42515 138.978 9.42515H114.966V39.0428H142.769C142.921 39.0428 143.104 39.032 143.32 39.0104C143.536 38.9888 143.731 38.924 143.903 38.8159C144.076 38.7079 144.227 38.5243 144.357 38.2651C144.487 38.0058 144.552 37.6494 144.552 37.1957V35.6403Z" stroke="black" />
    <path d="M203.009 47.4679H164.577C163.973 47.4679 163.411 47.3599 162.892 47.1439C162.374 46.9278 161.92 46.6362 161.531 46.269C161.164 45.8801 160.873 45.4264 160.657 44.908C160.44 44.3895 160.332 43.8278 160.332 43.2229V1H168.758V39.0428H203.009V47.4679Z" stroke="black" />
    <path d="M247.209 28.4789H220.605V19.989H247.209V28.4789ZM251 47.4679H220.605C219.438 47.4679 218.164 47.2627 216.781 46.8522C215.398 46.4418 214.113 45.7721 212.925 44.8432C211.758 43.8926 210.775 42.6721 209.976 41.1815C209.198 39.6693 208.809 37.8222 208.809 35.6403V5.24498C208.809 4.6617 208.917 4.11082 209.134 3.59235C209.35 3.07388 209.641 2.62022 210.008 2.23137C210.397 1.84251 210.851 1.54007 211.369 1.32404C211.888 1.10801 212.45 1 213.054 1H251V9.42515H217.235V35.6403C217.235 36.7421 217.526 37.5846 218.11 38.1679C218.693 38.7511 219.546 39.0428 220.669 39.0428H251V47.4679Z" stroke="black" />
</svg>